<?xml version="1.0" standalone="no"?>
<!DOCTYPE svg PUBLIC "-//W3C//DTD SVG 20010904//EN"
 "http://www.w3.org/TR/2001/REC-SVG-20010904/DTD/svg10.dtd">
<svg version="1.0" xmlns="http://www.w3.org/2000/svg"
 width="260.000000pt" height="260.000000pt" viewBox="0 0 260.000000 260.000000"
 preserveAspectRatio="xMidYMid meet">
<metadata>
Created by potrace 1.11, written by Peter Selinger 2001-2013
</metadata>
<g transform="translate(0.000000,260.000000) scale(0.100000,-0.100000)"
fill="#000000" stroke="none">
<path d="M0 1300 l0 -1300 1300 0 1300 0 0 1300 0 1300 -1300 0 -1300 0 0
-1300z m895 455 l0 -60 -62 -3 -63 -3 0 -204 0 -205 -70 0 -70 0 0 205 0 205
-65 0 -65 0 0 58 c0 32 3 62 7 66 4 3 93 5 197 4 l191 -3 0 -60z m294 55 c96
-18 145 -74 145 -165 0 -61 -23 -108 -68 -137 l-33 -22 54 -103 55 -104 -78 3
-79 3 -50 100 -50 100 -3 -102 -3 -103 -69 0 -70 0 0 263 c0 145 3 267 7 270
10 11 184 8 242 -3z m341 -178 c5 -167 7 -185 24 -198 28 -20 70 -17 92 7 17
19 20 42 24 198 l5 176 65 0 65 0 3 -160 c4 -197 -6 -252 -56 -308 -46 -50
-86 -67 -157 -67 -94 0 -172 55 -195 138 -5 20 -10 119 -10 220 l0 183 68 -3
67 -3 5 -183z m-1085 -321 c77 -36 118 -106 118 -206 1 -152 -100 -232 -284
-223 l-64 3 -3 223 -2 222 97 0 c74 0 108 -5 138 -19z m676 -71 c43 -12 66
-36 79 -79 9 -31 8 -31 -28 -31 -29 0 -39 5 -47 22 -11 25 -34 33 -71 24 -20
-5 -25 -12 -22 -34 3 -23 12 -30 68 -50 111 -38 142 -106 81 -174 -28 -31 -33
-33 -96 -33 -64 0 -68 1 -101 37 -46 50 -46 78 0 78 25 0 36 -5 41 -19 14 -45
115 -48 115 -2 0 25 -18 39 -79 56 -73 22 -103 51 -105 102 -1 49 29 88 78
102 42 12 46 12 87 1z m521 -20 l28 -21 0 21 c0 17 6 20 41 20 l41 0 -4 -202
c-3 -157 -8 -211 -20 -239 -35 -79 -136 -111 -223 -69 -44 21 -75 60 -75 95 0
23 67 21 75 -3 3 -11 17 -24 31 -30 72 -33 134 5 134 83 l0 45 -37 -20 c-78
-42 -158 -14 -201 70 -30 58 -26 149 8 206 44 70 139 91 202 44z m425 4 c47
-30 58 -69 58 -209 l0 -130 -31 -3 -32 -3 -3 125 c-4 115 -6 126 -28 150 -29
31 -69 34 -102 7 -22 -18 -24 -28 -29 -148 l-5 -128 -32 -3 -33 -3 0 180 0
181 35 0 c23 0 35 -5 35 -14 0 -11 8 -10 38 6 40 21 89 18 129 -8z m331 -1
c20 -12 52 -67 52 -88 0 -3 -15 -5 -34 -5 -25 0 -38 6 -50 25 -28 43 -101 30
-94 -16 2 -19 15 -28 68 -47 111 -38 142 -106 81 -174 -28 -31 -34 -33 -95
-33 -60 0 -68 3 -95 30 -16 17 -33 42 -36 58 -7 26 -5 27 28 27 26 0 37 -5 42
-19 15 -48 120 -47 113 1 -3 24 -23 36 -101 63 -55 20 -81 52 -80 102 2 84
121 129 201 76z m-1508 -18 l0 -35 -130 0 -130 0 0 35 0 35 130 0 130 0 0 -35z
m458 -142 l-3 -178 -32 -3 -33 -3 0 180 0 181 35 0 35 0 -2 -177z m-458 2 l0
-35 -130 0 -130 0 0 35 0 35 130 0 130 0 0 -35z m0 -145 l0 -40 -130 0 -130 0
0 40 0 40 130 0 130 0 0 -40z"/>
<path d="M1080 1635 l0 -55 36 0 c54 0 74 15 74 56 0 28 -5 36 -26 44 -14 6
-39 10 -55 10 -29 0 -29 -1 -29 -55z"/>
<path d="M280 1110 l0 -160 55 0 c105 0 155 50 155 155 0 109 -53 165 -157
165 l-53 0 0 -160z"/>
<path d="M1527 1160 c-81 -64 -45 -210 52 -210 54 0 91 43 91 106 0 103 -75
157 -143 104z"/>
</g>
</svg>
