<?xml version="1.0" standalone="no"?>
<!DOCTYPE svg PUBLIC "-//W3C//DTD SVG 20010904//EN"
 "http://www.w3.org/TR/2001/REC-SVG-20010904/DTD/svg10.dtd">
<svg version="1.0" xmlns="http://www.w3.org/2000/svg"
 width="1278.000000pt" height="1278.000000pt" viewBox="0 0 1278.000000 1278.000000"
 preserveAspectRatio="xMidYMid meet">
<metadata>
Created by potrace 1.11, written by Peter Selinger 2001-2013
</metadata>
<g transform="translate(0.000000,1278.000000) scale(0.100000,-0.100000)"
fill="#000000" stroke="none">
<path d="M6756 12494 c-225 -54 -380 -254 -380 -489 0 -448 533 -669 855 -355
196 192 197 508 3 707 -124 127 -305 179 -478 137z"/>
<path d="M6794 11186 c-69 -31 -142 -156 -184 -320 -10 -40 -36 -131 -58 -202
-22 -71 -56 -185 -77 -254 -62 -211 -248 -798 -364 -1145 -577 -1738 -1180
-3126 -1495 -3441 -84 -83 -137 -107 -225 -102 -85 4 -152 42 -255 143 -214
209 -617 802 -948 1395 -122 218 -485 944 -603 1205 -117 259 -134 292 -169
329 -61 65 -116 60 -191 -17 -55 -57 -75 -105 -75 -183 0 -64 17 -123 129
-444 135 -386 195 -632 226 -921 8 -79 24 -223 35 -319 30 -271 40 -430 47
-750 15 -727 -76 -1564 -253 -2350 -66 -289 -40 -420 95 -476 18 -8 221 -41
450 -74 835 -119 2021 -314 2236 -367 136 -34 163 -38 287 -38 75 0 140 3 144
8 11 11 -68 88 -129 124 -59 36 -235 92 -605 194 -606 166 -1196 297 -1802
400 -275 47 -299 52 -334 80 -72 57 -78 154 -23 379 82 336 139 700 217 1400
6 52 15 336 20 630 10 571 15 670 35 670 28 0 104 -82 140 -152 70 -135 394
-636 528 -818 250 -339 545 -595 737 -639 341 -79 646 244 1115 1178 175 350
440 984 699 1670 115 305 346 933 403 1096 40 116 71 168 112 189 l29 15 6
-132 c4 -73 22 -496 41 -942 75 -1753 137 -2392 297 -3084 107 -464 211 -744
330 -890 65 -80 157 -144 244 -171 278 -86 641 -10 979 205 125 80 780 465
790 465 2 0 -12 -44 -32 -97 -288 -789 -478 -1648 -558 -2523 -26 -281 -45
-360 -99 -395 -47 -31 -104 -16 -306 80 -799 379 -1438 644 -2165 896 -206 71
-250 83 -307 84 -84 0 -96 -10 -79 -64 15 -51 58 -86 120 -100 170 -36 1495
-676 2491 -1202 247 -130 348 -173 411 -174 107 -1 124 59 169 585 148 1719
567 2910 1325 3765 111 124 140 166 165 240 28 82 33 143 15 210 -29 110 -91
185 -153 185 -39 0 -100 -38 -175 -109 -40 -37 -88 -78 -107 -91 -19 -13 -93
-74 -165 -136 -560 -480 -1078 -838 -1540 -1064 -302 -148 -456 -200 -588
-200 -92 0 -137 16 -190 68 -86 83 -152 259 -216 579 -178 876 -258 1880 -291
3653 -5 294 -15 798 -21 1120 -13 728 -22 928 -44 998 -19 63 -66 119 -120
143 -47 22 -79 23 -121 5z"/>
<path d="M2925 2434 c-231 -27 -349 -50 -477 -93 -103 -35 -188 -71 -188 -80
0 -4 91 -13 203 -19 1248 -77 2551 -371 3787 -857 811 -318 1559 -694 2414
-1213 25 -15 -48 79 -149 192 -80 90 -232 230 -368 339 -1037 832 -3037 1591
-4537 1722 -155 13 -595 19 -685 9z"/>
</g>
</svg>
